<svg xmlns="http://www.w3.org/2000/svg" height="24" width="24" viewBox="0 0 24 24">
  <path fill="#ff7700" d="M1.175 12.225c-.051 0-.094.04-.101.092l-.233 2.154.233 2.154c.007.052.05.092.101.092.05 0 .093-.04.101-.092l.262-2.154-.262-2.154c-.008-.052-.051-.092-.101-.092zm1.49.108c-.058 0-.106.046-.114.105l-.208 2.047.208 2.047c.008.059.056.105.114.105s.105-.046.113-.105l.234-2.047-.234-2.047c-.008-.059-.055-.105-.113-.105zm1.455.046c-.064 0-.117.05-.125.115l-.186 2.001.186 2.001c.008.065.061.115.125.115.063 0 .116-.05.124-.115l.209-2.001-.209-2.001c-.008-.065-.061-.115-.124-.115zm1.424.023c-.071 0-.129.055-.138.127l-.165 1.978.165 1.978c.009.072.067.127.138.127.07 0 .128-.055.137-.127l.185-1.978-.185-1.978c-.009-.072-.067-.127-.137-.127zm1.401.01c-.077 0-.141.06-.15.138l-.144 1.968.144 1.968c.009.078.073.138.15.138.076 0 .14-.06.149-.138l.162-1.968-.162-1.968c-.009-.078-.073-.138-.149-.138zm1.386.001c-.084 0-.153.066-.162.151l-.122 1.967.122 1.967c.009.085.078.151.162.151.083 0 .152-.066.161-.151l.138-1.967-.138-1.967c-.009-.085-.078-.151-.161-.151zm1.376-.001c-.09 0-.164.071-.173.162l-.101 1.968.101 1.968c.009.091.083.162.173.162.089 0 .163-.071.172-.162l.114-1.968-.114-1.968c-.009-.091-.083-.162-.172-.162zm1.371-.001c-.097 0-.176.076-.185.174l-.079 1.969.079 1.969c.009.098.088.174.185.174.096 0 .175-.076.184-.174l.09-1.969-.09-1.969c-.009-.098-.088-.174-.184-.174zm1.365-.001c-.103 0-.188.081-.197.185l-.058 1.97.058 1.97c.009.104.094.185.197.185.102 0 .187-.081.196-.185l.065-1.97-.065-1.97c-.009-.104-.094-.185-.196-.185zm1.357 0c-.11 0-.2.086-.209.197l-.036 1.971.036 1.971c.009.111.099.197.209.197.109 0 .199-.086.208-.197l.041-1.971-.041-1.971c-.009-.111-.099-.197-.208-.197zm1.351.001c-.116 0-.211.092-.22.208l-.014 1.971.014 1.971c.009.116.104.208.22.208.115 0 .21-.092.219-.208l.016-1.971-.016-1.971c-.009-.116-.104-.208-.219-.208zm1.343-.001c-.122 0-.222.097-.231.22l.007 1.971-.007 1.971c.009.123.109.22.231.22.121 0 .221-.097.23-.22l.008-1.971-.008-1.971c-.009-.123-.109-.22-.23-.22zm1.336.001c-.129 0-.234.102-.243.232l.015 1.97-.015 1.97c.009.13.114.232.243.232.128 0 .233-.102.242-.232l.017-1.97-.017-1.97c-.009-.13-.114-.232-.242-.232zm1.329-.001c-.135 0-.245.107-.254.243l.03 1.971-.03 1.971c.009.136.119.243.254.243.134 0 .244-.107.253-.243l.034-1.971-.034-1.971c-.009-.136-.119-.243-.253-.243zm1.323.001c-.141 0-.256.112-.265.254l.045 1.97-.045 1.97c.009.142.124.254.265.254.14 0 .255-.112.264-.254l.051-1.97-.051-1.97c-.009-.142-.124-.254-.264-.254z"/>
</svg> 