<svg xmlns="http://www.w3.org/2000/svg" height="24" width="24" viewBox="0 0 168 168">
  <path fill="#1ed760" d="M84 0C37.8 0 0 37.8 0 84s37.8 84 84 84 84-37.8 84-84S130.2 0 84 0zm38.5 121.1c-1.5 2.5-4.7 3.2-7.1 1.7-19.4-11.9-43.9-14.6-72.7-8-2.7.6-5.5-1.1-6.1-3.8-.6-2.7 1.1-5.5 3.8-6.1 31.9-7.3 59.3-4.2 81.1 9.1 2.4 1.5 3.1 4.6 1 7.1zm10.1-22.4c-1.9 3-5.9 4-8.9 2.1-22.2-13.6-56-17.5-82.3-9.6-3.2.9-6.5-1-7.4-4.2-.9-3.2 1-6.5 4.2-7.4 30.4-9.2 68.2-4.7 94.4 11 3 1.9 4 5.9 2.1 8.9zm.9-23.3c-26.6-15.8-70.5-17.3-95.9-9.6-3.8 1.2-7.8-1-9-4.8-1.2-3.8 1-7.8 4.8-9 29.1-8.8 77.5-7.1 108.1 11.1 3.4 2 4.5 6.4 2.5 9.8-2 3.4-6.4 4.5-9.8 2.5-.1 0-.2-.1-.2-.1z"/>
</svg> 